# xmcd
#
# Track frame offsets:
#	150
#	18980
#	35900
#	49997
#	67366
#	84447
#	102047
#	121502
#	139960
#	158001
#	171046
#	185452
#	201402
#	219566
#
# Disc length: 3170 seconds
#
# Revision: 0
# Processed by: cddbd v1.4PL0 Copyright (c) Steve Scherf et al.
# Submitted via: dBpowerAMP V4.0
#
DISCID=c80c600e
DTITLE=Ana Torroja - Fragil
DYEAR=2003
DGENRE=Pop
TTITLE0=Con Solo Un Beso
TTITLE1=Libelula
TTITLE2=20 mariposas
TTITLE3=Quien dice
TTITLE4=Me basta con creer
TTITLE5=Fragil
TTITLE6=Solo por eso
TTITLE7=El Arte de llorar
TTITLE8=Hoy Igual que Ayer
TTITLE9=4 dias
TTITLE10=Menos, mas
TTITLE11=Letras de Sal
TTITLE12=I Wish You Were Here
TTITLE13=Con Solo Un Beso (Acústico)
EXTD=
EXTT0=
EXTT1=
EXTT2=
EXTT3=
EXTT4=
EXTT5=
EXTT6=
EXTT7=
EXTT8=
EXTT9=
EXTT10=
EXTT11=
EXTT12=
EXTT13=
PLAYORDER=
